# xmcd
#
# Track frame offsets: 
#        150
#        25556
#        59007
#        66974
#        98721
#        123795
#        146948
#        168845
#        192128
#        213522
#        239417
#
# Disc length: 3321 seconds
#
# Revision: 2
# Processed by: cddbd v1.5.2PL0 Copyright (c) Steve Scherf et al.
# Submitted via: ExactAudioCopy v0.95b4
#
DISCID=9b0cf70b
DTITLE=Northern Voices - Shaman
DYEAR=2002
DGENRE=Jazz
TTITLE0=Minik
TTITLE1=Shaman
TTITLE2=Northern Suite - Mjölkflickan
TTITLE3=Northern Suite - Hövringen
TTITLE4=Northern Suite - Envis Haiku
TTITLE5=Kazumi's Lullaby
TTITLE6=Åjako
TTITLE7=Slow Starter
TTITLE8=Tusind Veje
TTITLE9=Tæppehandleren
TTITLE10=Woman
EXTD=YEAR: 2002
EXTT0=
EXTT1=
EXTT2=
EXTT3=
EXTT4=
EXTT5=
EXTT6=
EXTT7=
EXTT8=
EXTT9=
EXTT10=
PLAYORDER=
